<svg xmlns="http://www.w3.org/2000/svg" xmlns:xlink="http://www.w3.org/1999/xlink" version="1.1" preserveAspectRatio="xMidYMid meet" width="639.4626863812732" height="66.86567595446388"><rect id="backgroundrect" width="100%" height="100%" x="0" y="0" fill="none" stroke="none"/><defs><path d="M42.51 60.6L7.05 60.6L6.67 9.48L42.69 9.48" id="b5tcvczQjp"/><path d="M33.73 34.77L6.67 35.25" id="a1o5vgpeZV"/><path d="" id="e6o0dwmc45"/><path d="M92.79 60.6L67.95 60.6L67.19 22.28" id="cKWv4CfGe"/><path d="M139.23 60.11L110.89 60.11L110.39 26.66L138.08 26.48" id="bhAwHWdPu"/><path d="M131.37 43.99L111.8 43.99" id="btM0NfJJh"/><path d="M160.22 23.7L160.22 63.04" id="cnvkr0Srn"/><path d="M192.35 23.7L192.35 62.96" id="cbvauR1KE"/><path d="M191.76 60.79L160.83 25.65" id="bnZMXgZ43"/><path d="" id="iyXgBmdMD"/><path d="M231.58 25.08L215.63 60.89" id="aDyPtIEZ"/><path d="M296.26 62.62L296.26 5.25" id="bmItwnaAO"/><path d="M340.5 63.03L340.32 6.08" id="b6yA5uZY7h"/><path d="" id="c1MdAHuI1r"/><path d="M383.53 25.54C403.18 25.1 404.9 40.91 404.9 44.54C404.9 48.17 402.62 61.89 383.53 61.62C370.8 61.44 364.04 55.35 363.23 43.33C363.66 31.77 370.42 25.84 383.53 25.54Z" id="ejyoc4hNC"/><path d="M432.17 62.44L431.86 28.55" id="a1jkaDhFcw"/><path d="M432.33 27.92C450.23 27.76 461.06 27.29 462.16 45.18C462.89 57.11 452.95 61.63 432.33 58.75" id="d1jMAHLll9"/><path d="M422.28 28.08L432.65 27.92" id="a11IJgF38W"/><path d="M501.69 25.74C521.34 25.3 523.06 41.11 523.06 44.74C523.06 48.37 520.77 62.09 501.69 61.82C488.96 61.64 482.2 55.55 481.39 43.53C481.82 31.97 488.58 26.04 501.69 25.74Z" id="caAdnaO91Q"/><path d="M578.46 22.87L559.94 58.02L540.66 22.11" id="b3gGcD7PG1"/><path d="M612.5 24.6L596.55 60.4" id="c22L3y9jNc"/><path d="M628.04 51.25L599.27 53.75" id="b1s51FfCio"/><path d="M610 21.18L633.39 60" id="a4zu6GHWp"/><path d="M229.22 21.96L251.86 60.6" id="egBgyLNwI"/><path d="M245.87 52.14L218.56 55.47" id="b1tCtUlytW"/><path d="M339.67 34.77L295.03 34.77" id="c47zz7apvG"/></defs><g class="currentLayer" style=""><title>Layer 1</title><g id="svg_1"><g id="svg_2"><g id="svg_3"><g id="svg_4"><use xlink:href="#b5tcvczQjp" opacity="1" fill-opacity="0" stroke="#000000" stroke-width="2" stroke-opacity="1" id="svg_5"/></g></g><g id="svg_6"><g id="svg_7"><use xlink:href="#a1o5vgpeZV" opacity="1" fill-opacity="0" stroke="#000000" stroke-width="2" stroke-opacity="1" id="svg_8"/></g></g><g id="svg_9"><g id="svg_10"><use xlink:href="#e6o0dwmc45" opacity="1" fill-opacity="0" stroke="#000000" stroke-width="2" stroke-opacity="1" id="svg_11"/></g></g><g id="svg_12"><g id="svg_13"><use xlink:href="#cKWv4CfGe" opacity="1" fill-opacity="0" stroke="#000000" stroke-width="2" stroke-opacity="1" id="svg_14"/></g></g><g id="svg_15"><g id="svg_16"><use xlink:href="#bhAwHWdPu" opacity="1" fill-opacity="0" stroke="#000000" stroke-width="2" stroke-opacity="1" id="svg_17"/></g></g><g id="svg_18"><g id="svg_19"><use xlink:href="#btM0NfJJh" opacity="1" fill-opacity="0" stroke="#000000" stroke-width="2" stroke-opacity="1" id="svg_20"/></g></g><g id="svg_21"><g id="svg_22"><use xlink:href="#cnvkr0Srn" opacity="1" fill-opacity="0" stroke="#000000" stroke-width="2" stroke-opacity="1" id="svg_23"/></g></g><g id="svg_24"><g id="svg_25"><use xlink:href="#cbvauR1KE" opacity="1" fill-opacity="0" stroke="#000000" stroke-width="2" stroke-opacity="1" id="svg_26"/></g></g><g id="svg_27"><g id="svg_28"><use xlink:href="#bnZMXgZ43" opacity="1" fill-opacity="0" stroke="#000000" stroke-width="2" stroke-opacity="1" id="svg_29"/></g></g><g id="svg_30"><g id="svg_31"><use xlink:href="#iyXgBmdMD" opacity="1" fill-opacity="0" stroke="#000000" stroke-width="2" stroke-opacity="1" id="svg_32"/></g></g><g id="svg_33"><g id="svg_34"><use xlink:href="#aDyPtIEZ" opacity="1" fill-opacity="0" stroke="#000000" stroke-width="2" stroke-opacity="1" id="svg_35"/></g></g><g id="svg_36"><g id="svg_37"><use xlink:href="#bmItwnaAO" opacity="1" fill-opacity="0" stroke="#000000" stroke-width="2" stroke-opacity="1" id="svg_38"/></g></g><g id="svg_39"><g id="svg_40"><use xlink:href="#b6yA5uZY7h" opacity="1" fill-opacity="0" stroke="#000000" stroke-width="2" stroke-opacity="1" id="svg_41"/></g></g><g id="svg_42"><g id="svg_43"><use xlink:href="#c1MdAHuI1r" opacity="1" fill-opacity="0" stroke="#000000" stroke-width="2" stroke-opacity="1" id="svg_44"/></g></g><g id="svg_45"><g id="svg_46"><use xlink:href="#ejyoc4hNC" opacity="1" fill-opacity="0" stroke="#000000" stroke-width="2" stroke-opacity="1" id="svg_47"/></g></g><g id="svg_48"><g id="svg_49"><use xlink:href="#a1jkaDhFcw" opacity="1" fill-opacity="0" stroke="#000000" stroke-width="2" stroke-opacity="1" id="svg_50"/></g></g><g id="svg_51"><g id="svg_52"><use xlink:href="#d1jMAHLll9" opacity="1" fill-opacity="0" stroke="#000000" stroke-width="2" stroke-opacity="1" id="svg_53"/></g></g><g id="svg_54"><g id="svg_55"><use xlink:href="#a11IJgF38W" opacity="1" fill-opacity="0" stroke="#000000" stroke-width="2" stroke-opacity="1" id="svg_56"/></g></g><g id="svg_57"><g id="svg_58"><use xlink:href="#caAdnaO91Q" opacity="1" fill-opacity="0" stroke="#000000" stroke-width="2" stroke-opacity="1" id="svg_59"/></g></g><g id="svg_60"><g id="svg_61"><use xlink:href="#b3gGcD7PG1" opacity="1" fill-opacity="0" stroke="#000000" stroke-width="2" stroke-opacity="1" id="svg_62"/></g></g><g id="svg_63"><g id="svg_64"><use xlink:href="#c22L3y9jNc" opacity="1" fill-opacity="0" stroke="#000000" stroke-width="2" stroke-opacity="1" id="svg_65"/></g></g><g id="svg_66"><g id="svg_67"><use xlink:href="#b1s51FfCio" opacity="1" fill-opacity="0" stroke="#000000" stroke-width="2" stroke-opacity="1" id="svg_68"/></g></g><g id="svg_69"><g id="svg_70"><use xlink:href="#a4zu6GHWp" opacity="1" fill-opacity="0" stroke="#000000" stroke-width="2" stroke-opacity="1" id="svg_71"/></g></g><g id="svg_72"><g id="svg_73"><use xlink:href="#egBgyLNwI" opacity="1" fill-opacity="0" stroke="#000000" stroke-width="2" stroke-opacity="1" id="svg_74"/></g></g><g id="svg_75"><g id="svg_76"><use xlink:href="#b1tCtUlytW" opacity="1" fill-opacity="0" stroke="#000000" stroke-width="2" stroke-opacity="1" id="svg_77"/></g></g><g id="svg_78"><g id="svg_79"><use xlink:href="#c47zz7apvG" opacity="1" fill-opacity="0" stroke="#000000" stroke-width="2" stroke-opacity="1" id="svg_80"/></g></g></g></g></g></svg>